<?xml version="1.0" encoding="UTF-8"?>
<svg xmlns="http://www.w3.org/2000/svg" width="163" height="60" viewBox="0 0 163 60" fill="none">
  <path d="M144.26 19.78L148.38 10.54H148.51L152.71 19.78H144.26ZM135.28 29.81H138.93C139.6 29.81 139.98 29.39 140.15 28.97L142.21 24.43H154.77L156.83 28.97C157.12 29.56 157.42 29.81 158.05 29.81H161.7C162.33 29.81 162.67 29.26 162.41 28.72L149.48 0.459999C149.35 0.209999 149.19 0 148.77 0H148.35C147.97 0 147.76 0.209999 147.64 0.459999L134.58 28.72C134.31 29.27 134.65 29.81 135.28 29.81ZM97.2 28.85C97.12 29.44 97.45 29.82 98 29.82H101.78C102.16 29.82 102.49 29.48 102.54 29.19L104.98 13.28C105.02 13.28 105.11 13.28 105.11 13.28L112.54 29.78C112.67 30.03 112.88 30.24 113.25 30.24H114.01C114.39 30.24 114.64 30.03 114.72 29.78L122.07 13.28C122.07 13.28 122.15 13.28 122.2 13.28L124.68 29.19C124.76 29.48 125.1 29.82 125.48 29.82H129.3C129.85 29.82 130.18 29.44 130.06 28.85L125.1 0.629997C125.06 0.289997 124.81 0 124.34 0H123.67C123.29 0 123.08 0.169998 122.96 0.419998L113.72 20.24C113.68 20.24 113.68 20.24 113.59 20.24L104.35 0.419998C104.22 0.169998 103.97 0 103.64 0H102.97C102.51 0 102.26 0.289997 102.21 0.629997L97.2 28.85ZM72.26 26.96C73.1 27.76 76.21 30.24 81.5 30.24C87.42 30.24 91.16 26.25 91.16 21.93C91.16 16.51 86.46 14.08 82.38 12.44C78.98 11.05 77.42 9.71 77.42 7.74C77.42 6.4 78.72 4.8 81.12 4.8C83.43 4.8 86.62 6.9 86.96 7.11C87.46 7.45 88.09 7.11 88.43 6.61L90.03 4.22C90.32 3.8 90.2 3.09 89.78 2.83C88.94 2.2 85.66 0.0200005 81.38 0.0200005C74.7 0.0200005 71.93 4.34 71.93 8.08C71.93 13.04 75.88 15.55 79.82 17.15C83.35 18.58 85.15 20.05 85.15 22.19C85.15 24 83.51 25.42 81.33 25.42C78.6 25.42 75.2 22.94 74.99 22.82C74.61 22.53 73.9 22.53 73.56 23.11L72.05 25.71C71.67 26.37 71.88 26.58 72.26 26.96ZM58.03 29.01C58.03 29.43 58.41 29.81 58.83 29.81H62.74C63.16 29.81 63.54 29.43 63.54 29.01V1.21C63.54 0.789999 63.16 0.41 62.74 0.41H58.83C58.41 0.41 58.03 0.789999 58.03 1.21V29.01ZM32.96 13.81V5.45H39.8C42.03 5.45 43.96 7.3 43.96 9.52C43.96 11.87 42.03 13.8 39.8 13.8H32.96V13.81ZM27.46 29.01C27.46 29.43 27.8 29.81 28.26 29.81H32.12C32.54 29.81 32.92 29.43 32.92 29.01V18.31H37.58L43.16 29.44C43.24 29.61 43.45 29.82 43.83 29.82H48.24C48.95 29.82 49.25 29.15 48.95 28.6L43.2 17.93C46.85 16.46 49.41 13.31 49.41 9.45C49.41 4.45 45.29 0.419998 40.26 0.419998H28.25C27.79 0.419998 27.45 0.799997 27.45 1.22V29.01H27.46ZM5.47 14.02V5.58H10.34C12.69 5.58 14.67 7.34 14.67 9.65C14.67 12.13 12.7 14.02 10.34 14.02H5.47ZM0.0100098 29.01C0.0100098 29.43 0.350013 29.81 0.810013 29.81H4.67001C5.09001 29.81 5.47 29.43 5.47 29.01V19.14H10.72C15.84 19.14 20.08 14.9 20.08 9.69C20.08 4.61 15.84 0.41 10.67 0.41H0.800003C0.340003 0.41 0 0.789999 0 1.21V29.01H0.0100098Z" fill="#333333"></path>
  <path d="M25.4299 52.71C25.4299 56.68 28.6299 59.84 32.5999 59.84C34.3699 59.84 36.0799 59.22 37.4299 57.91C37.5699 57.77 37.6099 57.51 37.4499 57.37L36.2199 56.1C36.0999 55.98 35.8799 55.96 35.7199 56.1C34.8899 56.78 33.8699 57.23 32.6799 57.23C30.1399 57.23 28.2299 55.12 28.2299 52.64C28.2299 50.14 30.1199 48.01 32.6599 48.01C33.7699 48.01 34.8899 48.45 35.7199 49.18C35.8799 49.34 36.0799 49.34 36.2199 49.18L37.4299 47.93C37.5899 47.77 37.5899 47.53 37.4099 47.37C36.0599 46.16 34.6099 45.52 32.5999 45.52C28.6299 45.53 25.4299 48.73 25.4299 52.71Z" fill="#333333"></path>
  <path d="M42.8 52.71C42.8 50.21 44.85 48.12 47.35 48.12C49.85 48.12 51.92 50.21 51.92 52.71C51.92 55.21 49.85 57.26 47.35 57.26C44.84 57.26 42.8 55.21 42.8 52.71ZM40.21 52.71C40.21 56.68 43.37 59.84 47.34 59.84C51.31 59.84 54.49 56.68 54.49 52.71C54.49 48.74 51.31 45.54 47.34 45.54C43.37 45.53 40.21 48.73 40.21 52.71Z" fill="#333333"></path>
  <path d="M57.4202 59.19C57.3802 59.47 57.5402 59.65 57.8002 59.65H59.5902C59.7702 59.65 59.9302 59.49 59.9502 59.35L61.1002 51.82C61.1202 51.82 61.1602 51.82 61.1602 51.82L64.6802 59.63C64.7402 59.75 64.8402 59.85 65.0202 59.85H65.3802C65.5602 59.85 65.6802 59.75 65.7202 59.63L69.2002 51.82C69.2002 51.82 69.2402 51.82 69.2602 51.82L70.4302 59.35C70.4702 59.49 70.6302 59.65 70.8102 59.65H72.6202C72.8802 59.65 73.0402 59.47 72.9802 59.19L70.6302 45.83C70.6102 45.67 70.4902 45.53 70.2702 45.53H69.9502C69.7702 45.53 69.6702 45.61 69.6102 45.73L65.2402 55.11C65.2202 55.11 65.2202 55.11 65.1802 55.11L60.8102 45.73C60.7502 45.61 60.6302 45.53 60.4702 45.53H60.1502C59.9302 45.53 59.8102 45.67 59.7902 45.83L57.4202 59.19Z" fill="#333333"></path>
  <path d="M79.4999 52.17V48.18H81.8099C82.9199 48.18 83.8599 49.01 83.8599 50.11C83.8599 51.28 82.9299 52.18 81.8099 52.18H79.4999V52.17ZM76.9199 59.27C76.9199 59.47 77.0799 59.65 77.2999 59.65H79.1299C79.3299 59.65 79.5099 59.47 79.5099 59.27V54.6H81.9899C84.4099 54.6 86.4199 52.59 86.4199 50.13C86.4199 47.73 84.4099 45.74 81.9699 45.74H77.2999C77.0799 45.74 76.9199 45.92 76.9199 46.12V59.27Z" fill="#333333"></path>
  <path d="M89.9099 59.27C89.9099 59.47 90.0699 59.65 90.2899 59.65H97.5599C97.7799 59.65 97.9399 59.47 97.9399 59.27V57.64C97.9399 57.44 97.7799 57.26 97.5599 57.26H92.4899V46.11C92.4899 45.91 92.3099 45.73 92.1099 45.73H90.2799C90.0599 45.73 89.8999 45.91 89.8999 46.11V59.27H89.9099Z" fill="#333333"></path>
  <path d="M101.18 59.27C101.18 59.47 101.34 59.65 101.56 59.65H109.65C109.87 59.65 110.03 59.47 110.03 59.27V57.64C110.03 57.44 109.87 57.26 109.65 57.26H103.77V53.78H108.68C108.88 53.78 109.06 53.62 109.06 53.4V51.75C109.06 51.55 108.88 51.37 108.68 51.37H103.77V48.11H109.65C109.87 48.11 110.03 47.93 110.03 47.73V46.1C110.03 45.9 109.87 45.72 109.65 45.72H101.56C101.34 45.72 101.18 45.9 101.18 46.1V59.27Z" fill="#333333"></path>
  <path d="M112.11 58.39C112.45 58.81 113.4 59.84 115.13 59.84C117.46 59.84 119.3 58.25 119.3 55.49V46.11C119.3 45.91 119.14 45.73 118.92 45.73H117.05C116.83 45.73 116.67 45.91 116.67 46.11V55.49C116.67 56.86 115.86 57.5 115.08 57.5C114.42 57.5 114.03 57.14 113.77 56.86C113.59 56.68 113.39 56.64 113.17 56.84L112.14 57.89C112.03 58.04 112.01 58.23 112.11 58.39Z" fill="#333333"></path>
  <path d="M125.36 52.71C125.36 50.21 127.41 48.12 129.91 48.12C132.41 48.12 134.48 50.21 134.48 52.71C134.48 55.21 132.41 57.26 129.91 57.26C127.41 57.26 125.36 55.21 125.36 52.71ZM122.78 52.71C122.78 56.68 125.94 59.84 129.92 59.84C133.89 59.84 137.07 56.68 137.07 52.71C137.07 48.74 133.89 45.54 129.92 45.54C125.94 45.53 122.78 48.73 122.78 52.71Z" fill="#333333"></path>
</svg>
