<svg width="153" height="86" viewBox="0 0 153 86" fill="none" xmlns="http://www.w3.org/2000/svg">
<g clip-path="url(#clip0_143_207)">
<path d="M32.6635 54.3722C35.0677 54.3722 37.301 53.7035 39.3073 52.3639C39.6302 53.5535 40.6219 54.3222 41.9114 54.3222C42.7052 54.3222 43.3739 54.0493 43.8948 53.4785C44.4406 52.9347 44.7135 52.2639 44.7135 51.4952V42.2972C44.7135 39.0014 43.3989 35.9764 41.1927 33.7201C38.9364 31.4639 35.9364 30.1743 32.6635 30.1743C29.4156 30.1743 26.3656 31.5139 24.1594 33.7201C21.9531 35.9764 20.6135 39.0243 20.6135 42.2972C20.6135 45.5702 21.9031 48.5702 24.1594 50.8264C26.3656 53.0327 29.4156 54.3722 32.6635 54.3722ZM32.6635 48.8681C30.8781 48.8681 29.2427 48.1493 28.0531 46.9347C26.8364 45.7201 26.1427 44.0827 26.1427 42.2972C26.1427 40.5118 26.8364 38.8764 28.0531 37.6618C29.2677 36.4472 30.9031 35.7535 32.6635 35.7535C34.4489 35.7535 36.1344 36.4722 37.3239 37.6618C38.5156 38.8764 39.2094 40.5118 39.2094 42.2972C39.2094 44.0827 38.5156 45.7201 37.3239 46.9347C36.1094 48.1493 34.4489 48.8681 32.6635 48.8681Z" fill="#32312F"/>
<path d="M52.0021 54.0993C52.7209 54.0993 53.4146 53.8014 53.9105 53.3056C54.4313 52.7597 54.6792 52.116 54.6792 51.3722V42.6951C54.7042 40.7847 55.523 39.0493 56.8355 37.7368C58.15 36.4472 59.9105 35.6785 61.7709 35.6535H61.8938C62.6875 35.6535 63.3563 35.3806 63.9271 34.8597C64.423 34.3639 64.7459 33.6701 64.7459 32.9014C64.7459 31.2889 63.6792 30.1743 61.8938 30.1743H61.8438C58.448 30.1743 55.275 31.5368 52.9188 33.8931C50.5646 36.2493 49.175 39.4722 49.175 42.8681V51.3722C49.175 52.141 49.448 52.7847 50.0188 53.3056C50.5875 53.8264 51.2334 54.0993 52.0021 54.0993Z" fill="#32312F"/>
<path d="M78.48 54.3722C81.7529 54.3722 84.8279 53.0327 87.0342 50.8264C89.2904 48.5702 90.58 45.5702 90.58 42.2972C90.58 39.0243 89.2404 35.9764 87.0342 33.7201C84.8279 31.5139 81.7529 30.1743 78.48 30.1743C75.2071 30.1743 72.2071 31.4639 69.9508 33.7201C67.6946 35.9764 66.3821 39.0243 66.3821 42.2972C66.3821 45.5702 67.6946 48.6201 69.9508 50.8264C72.2071 53.0827 75.2071 54.3722 78.48 54.3722ZM78.48 48.8681C76.6946 48.8681 75.0592 48.1493 73.8446 46.9347C72.63 45.7201 71.9092 44.0827 71.9092 42.2972C71.9092 40.5118 72.63 38.8764 73.8446 37.6618C75.0342 36.4722 76.7196 35.7535 78.48 35.7535C80.2654 35.7535 81.9508 36.4722 83.1404 37.6618C84.3571 38.8764 85.0758 40.5118 85.0758 42.2972C85.0758 44.0827 84.38 45.7201 83.1654 46.9347C81.9508 48.1493 80.2904 48.8681 78.48 48.8681Z" fill="#32312F"/>
<path d="M103.224 54.0994C104.809 54.0994 105.951 53.0077 105.951 51.4223C105.951 50.6535 105.703 50.0077 105.182 49.4869C104.661 48.9681 103.993 48.6952 103.224 48.6952H103.099C101.338 48.6702 100.347 47.7036 100.347 45.9431V24.3723C100.347 23.6035 100.074 22.9598 99.505 22.389C98.9342 21.8681 98.2654 21.5952 97.4967 21.5952C96.7279 21.5952 96.1071 21.8681 95.6113 22.389C95.0904 22.9348 94.8425 23.6035 94.8425 24.3723V45.9431C94.8425 48.3223 95.7363 50.3556 97.2967 51.8431C98.7842 53.3056 100.868 54.0994 103.224 54.0994Z" fill="#32312F"/>
<path d="M119.76 54.3722C121.941 54.3722 123.875 54.0243 125.189 53.3556C126.504 52.6868 127.273 51.7431 127.273 50.6535C127.273 49.9347 126.975 49.191 126.504 48.6702C125.958 48.0993 125.314 47.8014 124.57 47.8014C124.098 47.8014 123.554 47.9764 122.958 48.3222C122.066 48.8431 121.223 49.091 119.76 49.091C118.37 49.091 117.131 48.6952 116.041 47.8764C114.925 47.0577 114.156 46.016 113.735 44.7764H129.231C130.818 44.7764 131.933 43.7368 131.933 42.1493C131.858 38.9014 130.495 35.8514 128.289 33.6701C126.033 31.4639 123.008 30.1743 119.76 30.1743C116.487 30.1743 113.412 31.5139 111.156 33.7201C108.9 35.9264 107.587 39.0014 107.587 42.2972C107.587 45.5702 108.9 48.6201 111.156 50.8264C113.412 53.0327 116.487 54.3722 119.76 54.3722ZM113.562 40.166C113.933 38.8514 114.727 37.6118 115.818 36.7931C116.983 35.8764 118.345 35.4306 119.858 35.4306C121.42 35.4306 122.785 35.8764 123.95 36.7452C125.066 37.6118 125.883 38.8014 126.281 40.166H113.562Z" fill="#32312F"/>
</g>
<defs>
<clipPath id="clip0_143_207">
<rect width="153" height="86" fill="white"/>
</clipPath>
</defs>
</svg>
